<?xml version="1.0" standalone="no"?>
<!DOCTYPE svg PUBLIC "-//W3C//DTD SVG 20010904//EN"
 "http://www.w3.org/TR/2001/REC-SVG-20010904/DTD/svg10.dtd">
<svg version="1.0" xmlns="http://www.w3.org/2000/svg"
 width="1048.000000pt" height="260.000000pt" viewBox="0 0 1048.000000 260.000000"
 preserveAspectRatio="xMidYMid meet">

<g transform="translate(0.000000,260.000000) scale(0.100000,-0.100000)"
fill="#000000" stroke="none">
<path d="M180 2355 l0 -144 118 -3 117 -3 3 -862 2 -862 -117 -3 -118 -3 0
-145 0 -145 430 0 430 0 0 145 0 145 -135 3 c-92 2 -137 6 -142 15 -4 7 -8
163 -8 348 0 269 3 339 13 348 10 7 140 12 417 13 l402 3 0 134 c-1 74 -5 138
-9 142 -5 5 -191 10 -413 11 l-405 3 -3 345 c-2 315 -1 346 15 358 13 9 109
12 397 12 210 0 387 -4 393 -8 9 -6 13 -62 15 -202 l3 -195 148 -3 147 -3 -2
348 -3 348 -847 3 -848 2 0 -145z"/>
<path d="M2580 2355 l0 -145 60 0 c45 0 62 -4 66 -15 4 -8 -8 -57 -25 -107
-30 -92 -123 -359 -134 -388 -3 -8 -22 -62 -41 -120 -68 -203 -127 -375 -136
-395 -5 -11 -27 -76 -50 -145 -23 -69 -45 -134 -50 -145 -5 -11 -32 -90 -60
-175 -49 -148 -63 -187 -80 -220 -5 -11 -31 -16 -96 -20 l-89 -5 0 -145 0
-145 375 0 375 0 3 148 3 147 -111 0 c-98 0 -110 2 -110 18 0 9 16 62 36 117
19 55 46 134 61 175 14 41 29 83 34 92 9 17 41 18 447 18 l438 0 23 -68 c12
-37 26 -76 31 -87 10 -24 77 -223 82 -245 2 -12 -16 -16 -107 -20 l-110 -5 -3
-125 c-1 -69 0 -135 3 -148 l5 -22 378 2 377 3 0 145 0 145 -96 3 -95 3 -13
37 c-7 20 -16 46 -21 57 -5 11 -27 76 -50 145 -23 69 -45 134 -50 145 -4 11
-32 90 -60 175 -28 85 -56 164 -60 175 -5 11 -20 54 -34 95 -14 41 -57 167
-96 280 -39 113 -86 252 -106 310 -19 58 -39 114 -43 125 -26 59 -53 155 -48
168 4 12 23 17 69 19 l63 3 0 140 0 140 -477 3 -478 2 0 -145z m485 -216 c8
-11 63 -167 125 -349 21 -63 66 -194 100 -290 89 -254 93 -267 87 -284 -6 -14
-45 -16 -326 -16 -176 0 -322 4 -325 8 -5 8 22 98 44 147 5 11 25 67 44 125
34 101 127 369 139 400 3 8 25 72 48 143 41 123 50 139 64 116z"/>
<path d="M4467 2493 c-9 -8 -9 -246 -1 -267 5 -13 27 -16 133 -16 69 0 132 -4
139 -8 10 -7 12 -186 10 -863 l-3 -854 -140 -5 -140 -5 -3 -142 c-3 -141 -2
-143 20 -148 13 -3 217 -4 453 -3 l430 3 0 145 0 145 -137 3 -138 3 0 858 c0
774 2 859 16 865 9 3 72 6 140 6 l124 0 0 145 0 145 -448 0 c-247 0 -452 -3
-455 -7z"/>
<path d="M5897 2493 c-9 -8 -9 -246 -1 -267 5 -13 24 -16 109 -16 57 0 110 -3
119 -6 14 -6 16 -91 16 -865 l0 -859 -119 0 c-99 0 -120 -3 -125 -16 -3 -9 -6
-69 -6 -134 0 -65 3 -125 6 -134 5 -14 50 -16 395 -16 374 0 389 1 399 19 15
29 13 243 -2 264 -10 13 -33 17 -108 19 l-95 3 0 255 0 255 252 3 251 2 145
-242 c80 -134 149 -251 152 -260 5 -14 -1 -17 -32 -20 l-38 -3 0 -145 0 -145
313 -3 312 -2 10 26 c13 34 13 230 0 255 -9 16 -22 19 -98 19 l-87 0 -23 35
c-20 31 -82 134 -253 419 -36 59 -46 83 -39 95 6 9 84 93 175 186 l164 170 0
365 0 365 -105 110 c-58 61 -140 147 -181 193 l-76 82 -712 0 c-391 0 -715 -3
-718 -7z m1381 -417 l102 -105 0 -220 0 -220 -101 -105 -102 -106 -348 0 -349
0 0 430 0 430 348 0 349 0 101 -104z"/>
<path d="M8376 2484 c-3 -9 -6 -67 -6 -129 0 -62 3 -120 6 -129 5 -13 24 -16
109 -16 57 0 110 -3 119 -6 14 -6 16 -91 16 -865 l0 -859 -119 0 c-115 0 -119
-1 -125 -22 -10 -38 -7 -238 4 -259 10 -18 25 -19 393 -19 285 0 386 3 395 12
14 14 17 255 4 275 -5 8 -43 13 -107 15 l-100 3 0 255 0 255 251 3 252 2 77
-127 c43 -71 87 -144 98 -163 10 -19 28 -47 38 -62 11 -14 19 -28 19 -31 0 -2
16 -31 35 -63 19 -32 35 -61 35 -65 0 -4 -17 -9 -37 -11 l-38 -3 0 -145 0
-145 310 -3 c283 -2 311 -1 323 15 16 23 17 254 0 271 -7 7 -44 12 -97 12
l-86 0 -23 36 c-13 20 -31 50 -41 67 -10 18 -56 93 -101 167 -45 74 -90 149
-100 165 -9 17 -27 47 -40 68 l-22 38 99 102 c196 202 248 259 255 275 4 9 7
168 7 352 0 184 -3 342 -7 352 -4 9 -66 78 -137 155 -72 76 -153 162 -179 191
l-49 52 -712 0 c-641 0 -713 -2 -719 -16z m1382 -408 l102 -105 0 -221 0 -221
-102 -105 -101 -104 -349 0 -348 0 0 430 0 430 348 0 349 0 101 -104z"/>
</g>
</svg>
