<?xml version="1.0" standalone="no"?>
<!DOCTYPE svg PUBLIC "-//W3C//DTD SVG 20010904//EN"
 "http://www.w3.org/TR/2001/REC-SVG-20010904/DTD/svg10.dtd">
<svg version="1.0" xmlns="http://www.w3.org/2000/svg"
 width="1542.000000pt" height="378.000000pt" viewBox="0 0 1542.000000 378.000000"
 preserveAspectRatio="xMidYMid meet">

<g transform="translate(0.000000,378.000000) scale(0.100000,-0.100000)"
fill="#000000" stroke="none">
<path d="M1655 3513 c-288 -37 -534 -144 -744 -322 -60 -51 -71 -56 -128 -62
-129 -13 -193 -95 -193 -247 0 -75 -4 -92 -34 -155 -51 -108 -95 -260 -115
-398 l-17 -124 -47 -7 c-84 -12 -149 -76 -168 -165 -7 -36 -10 -107 -7 -184 4
-109 8 -131 29 -169 43 -80 111 -110 245 -110 l80 0 23 -47 c20 -42 98 -165
147 -230 15 -21 14 -22 -25 -42 -44 -23 -82 -69 -100 -120 -14 -43 -14 -293 0
-346 15 -55 83 -119 142 -133 59 -15 195 -15 255 0 57 14 126 79 141 134 6 22
11 63 11 92 0 29 5 52 10 52 8 0 107 -46 117 -54 3 -3 -37 -116 -166 -475 -45
-123 -81 -226 -81 -227 0 -2 26 -4 59 -4 47 0 60 3 64 18 3 9 33 94 67 187 34
94 83 232 110 308 27 75 51 141 54 146 5 7 154 -23 164 -33 1 -2 -5 -20 -14
-41 -12 -30 -15 -69 -12 -194 3 -180 15 -215 87 -266 42 -29 46 -30 179 -33
128 -3 140 -2 182 21 30 15 55 40 75 72 29 47 30 53 33 186 4 124 -3 194 -22
240 -6 13 7 20 74 37 l81 20 8 -21 c5 -12 56 -156 115 -321 59 -164 110 -305
113 -312 4 -10 24 -14 65 -14 53 0 59 2 53 18 -35 87 -244 679 -242 686 1 4
31 21 65 37 l62 28 0 -65 c0 -113 52 -192 144 -219 58 -18 204 -20 261 -4 55
15 101 52 128 102 20 39 22 55 22 207 0 162 0 166 -28 212 -17 30 -44 57 -72
74 -49 28 -53 35 -31 54 19 15 128 184 152 232 l17 36 102 4 c93 3 107 6 150
33 32 20 56 45 72 74 21 41 23 56 23 203 0 169 -8 208 -53 256 -31 34 -91 62
-131 62 l-34 0 -7 63 c-16 161 -69 356 -126 469 -24 48 -29 70 -29 131 0 94
-20 161 -62 204 -42 44 -87 63 -148 63 -35 0 -52 5 -66 21 -10 12 -63 54 -117
94 -242 181 -538 278 -835 274 -53 -1 -110 -4 -127 -6z m265 -128 c21 -11 32
-27 40 -56 19 -70 20 -69 -165 -69 l-165 0 0 30 c0 41 26 89 53 100 38 15 205
12 237 -5z m-398 -162 c-3 -99 0 -171 8 -195 22 -75 112 -147 183 -148 l27 0
-2 -192 -3 -192 -27 -7 c-15 -4 -47 -17 -73 -30 l-46 -23 -219 219 -220 220 0
45 c0 67 -42 145 -96 180 l-43 27 22 20 c86 80 329 195 487 232 3 0 3 -70 2
-156z m699 111 c93 -33 197 -85 274 -137 103 -69 101 -65 48 -101 -60 -40 -93
-101 -93 -170 l0 -51 -219 -219 -220 -219 -58 25 c-32 14 -68 29 -81 33 -22 6
-22 7 -20 193 3 178 4 187 23 190 61 10 99 26 131 54 65 57 69 73 69 269 l0
176 36 -8 c20 -5 70 -20 110 -35z m-258 -239 c-1 -42 -7 -54 -32 -77 -30 -26
-37 -28 -126 -28 -52 0 -106 5 -120 12 -34 15 -55 56 -55 108 l0 40 168 -2
167 -3 -2 -50z m-972 -85 c25 -14 49 -62 49 -100 l0 -30 -170 0 -170 0 0 30
c0 37 23 85 47 99 23 14 219 14 244 1z m1873 -15 c21 -19 26 -33 26 -70 l0
-45 -166 0 -167 0 6 47 c4 35 12 53 32 70 24 21 36 23 134 23 101 0 110 -2
135 -25z m-1824 -270 c0 -35 -6 -52 -29 -77 -29 -33 -30 -33 -134 -36 -103 -4
-105 -3 -137 25 -27 24 -33 38 -38 81 l-5 52 172 0 171 0 0 -45z m1850 -8 c0
-45 -4 -58 -26 -78 -23 -21 -36 -24 -120 -27 -109 -4 -148 7 -169 49 -8 15
-15 46 -15 69 l0 40 165 0 165 0 0 -53z m-1398 -398 c-11 -19 -26 -53 -33 -76
l-12 -43 -449 0 c-373 0 -450 2 -454 14 -12 30 32 262 66 352 l11 27 32 -31
c52 -51 93 -62 219 -62 130 0 173 14 225 73 29 33 53 90 53 127 0 8 81 -66
181 -166 l180 -180 -19 -35z m958 371 c0 -32 28 -92 58 -124 48 -51 95 -66
211 -66 122 0 167 11 220 57 l39 33 21 -62 c25 -79 48 -196 53 -268 l3 -55
-452 -3 -452 -2 -6 22 c-4 13 -19 49 -33 81 l-25 58 174 174 c96 96 177 175
182 175 4 0 7 -9 7 -20z m-554 -324 c126 -59 177 -197 118 -322 -56 -119 -197
-168 -319 -110 -60 28 -87 56 -114 116 -91 200 117 408 315 316z m-1275 -305
c23 -23 29 -39 29 -70 l0 -41 -165 0 -165 0 0 45 c0 35 6 52 25 70 23 24 31
25 135 25 110 0 112 0 141 -29z m835 2 c4 -16 18 -50 31 -77 l25 -49 -321
-321 -321 -321 -30 35 c-44 51 -143 199 -159 238 -13 32 -12 35 16 65 58 60
63 81 63 251 0 85 -4 166 -10 180 l-10 26 355 0 355 0 6 -27z m1386 -145 c-4
-197 2 -232 55 -284 32 -33 34 -38 23 -62 -20 -45 -136 -215 -167 -244 l-29
-28 -318 319 -319 319 27 53 c14 29 26 60 26 69 0 9 3 20 7 23 3 4 162 7 352
7 l346 0 -3 -172z m409 143 c23 -23 29 -39 29 -70 l0 -41 -165 0 -165 0 0 44
c0 37 5 48 31 70 29 24 37 26 136 26 102 0 105 -1 134 -29z m-1639 -213 c14
-12 8 -33 -53 -203 -38 -104 -106 -293 -151 -419 -45 -125 -88 -230 -94 -233
-7 -3 -45 13 -85 34 -68 36 -72 41 -89 92 -22 67 -47 101 -93 126 -20 11 -37
24 -37 29 0 10 570 584 581 585 3 1 12 -5 21 -11z m688 -284 c162 -163 290
-298 283 -301 -27 -10 -77 -50 -96 -75 -11 -14 -25 -48 -32 -75 -11 -46 -15
-50 -81 -85 -38 -21 -76 -38 -85 -38 -9 0 -20 14 -26 33 -6 17 -61 172 -123
342 -61 171 -124 346 -140 390 -21 57 -26 83 -18 92 6 7 13 13 17 13 3 0 139
-133 301 -296z m-1650 236 c0 -97 -47 -125 -193 -118 -83 4 -92 6 -113 32 -18
21 -24 39 -24 77 l0 49 165 0 165 0 0 -40z m2630 1 c0 -93 -39 -121 -165 -121
-83 0 -137 17 -154 48 -6 12 -11 41 -11 66 l0 46 165 0 165 0 0 -39z m-1540
-457 l0 -456 -67 7 c-88 8 -243 44 -243 56 0 12 302 849 306 849 2 0 4 -205 4
-456z m163 351 c20 -55 63 -176 97 -270 133 -369 171 -477 168 -480 -17 -17
-278 -61 -303 -51 -13 5 -15 62 -15 449 0 378 3 470 15 455 1 -2 18 -48 38
-103z m-907 -550 c26 -18 47 -65 42 -97 l-3 -23 -165 0 -165 0 1 44 c1 35 7
49 28 68 25 21 36 23 134 23 78 0 113 -4 128 -15z m1869 -10 c19 -18 25 -35
25 -70 l0 -45 -166 0 -167 0 6 47 c4 35 12 53 32 70 24 21 36 23 136 23 103 0
111 -1 134 -25z m-1825 -262 c-1 -93 -51 -126 -188 -121 -84 4 -95 6 -119 30
-19 19 -27 40 -31 77 l-5 51 172 0 171 0 0 -37z m1850 -9 c0 -25 -5 -54 -11
-66 -17 -31 -71 -48 -155 -48 -121 0 -164 31 -164 120 l0 40 165 0 165 0 0
-46z m-956 -114 c15 -15 28 -42 32 -67 l7 -43 -172 0 -171 0 0 34 c0 37 30 82
64 97 11 5 65 8 118 6 89 -2 100 -4 122 -27z m31 -240 c12 -20 -7 -93 -31
-117 -21 -21 -31 -23 -133 -23 -100 0 -112 2 -137 23 -21 18 -28 35 -32 75
l-5 52 166 0 c104 0 168 -4 172 -10z"/>
<path d="M4460 2985 l0 -145 130 0 130 0 0 -915 0 -915 -130 0 -130 0 0 -150
0 -150 450 0 450 0 0 150 0 150 -150 0 -150 0 0 380 0 380 440 0 440 0 0 150
0 150 -437 2 -438 3 0 380 0 380 437 3 438 2 2 -217 3 -218 148 -3 147 -3 0
366 0 365 -890 0 -890 0 0 -145z"/>
<path d="M6990 2985 l0 -144 79 -3 78 -3 -243 -705 c-134 -388 -276 -798 -315
-912 l-71 -208 -99 0 -99 0 0 -150 0 -150 395 0 395 0 0 150 0 150 -125 0
-124 0 78 228 79 227 470 3 470 2 67 -197 c38 -109 74 -213 81 -230 l13 -33
-125 0 -124 0 0 -150 0 -150 395 0 395 0 0 150 0 150 -99 0 -99 0 -41 118
c-22 64 -107 306 -187 537 -80 231 -203 588 -275 793 -71 205 -129 375 -129
378 0 2 36 4 80 4 l80 0 0 145 0 145 -500 0 -500 0 0 -145z m601 -457 c216
-616 261 -749 257 -754 -3 -2 -167 -3 -365 -2 l-360 3 181 522 c99 287 182
520 184 518 2 -2 49 -131 103 -287z"/>
<path d="M8980 2985 l0 -145 150 0 150 0 0 -915 0 -915 -150 0 -150 0 0 -150
0 -150 470 0 470 0 0 150 0 150 -150 0 -150 0 2 913 3 912 148 3 147 3 0 144
0 145 -470 0 -470 0 0 -145z"/>
<path d="M10490 2985 l0 -145 130 0 130 0 0 -915 0 -915 -130 0 -130 0 0 -150
0 -150 415 0 415 0 0 150 0 150 -115 0 -115 0 2 278 3 277 275 0 275 0 167
-277 167 -278 -49 0 -50 0 0 -150 0 -150 330 0 330 0 0 150 0 150 -99 0 -98 0
-173 286 -173 286 40 41 c22 23 106 111 186 196 l147 154 0 380 0 379 -191
199 -192 199 -748 0 -749 0 0 -145z m1454 -277 l106 -113 0 -245 0 -245 -107
-107 -108 -108 -372 0 -373 0 0 458 c0 252 3 462 7 465 3 4 172 7 374 7 l367
0 106 -112z"/>
<path d="M13110 2985 l0 -144 128 -3 127 -3 3 -912 2 -913 -130 0 -130 0 0
-150 0 -150 410 0 410 0 0 150 0 150 -110 0 -110 0 0 280 0 280 277 -2 276 -3
163 -270 c90 -148 164 -273 164 -277 0 -5 -22 -8 -50 -8 l-50 0 0 -150 0 -150
335 0 335 0 0 150 0 149 -102 3 -101 3 -169 278 c-92 153 -168 282 -168 287 0
5 83 96 185 202 l184 193 1 376 0 376 -192 201 -191 202 -749 0 -748 0 0 -145z
m1450 -277 l109 -113 1 -245 0 -245 -107 -107 -108 -108 -372 0 -373 0 0 465
0 465 371 0 371 0 108 -112z"/>
</g>
</svg>
