<?xml version="1.0" standalone="no"?>
<!DOCTYPE svg PUBLIC "-//W3C//DTD SVG 20010904//EN"
 "http://www.w3.org/TR/2001/REC-SVG-20010904/DTD/svg10.dtd">
<svg version="1.0" xmlns="http://www.w3.org/2000/svg"
 width="432.000000pt" height="432.000000pt" viewBox="0 0 432.000000 432.000000"
 preserveAspectRatio="xMidYMid meet">

<g transform="translate(0.000000,432.000000) scale(0.100000,-0.100000)"
fill="#000000" stroke="none">
<path d="M1925 3735 c-296 -55 -539 -171 -766 -367 -51 -43 -61 -48 -106 -48
-74 0 -150 -42 -188 -104 -27 -45 -30 -59 -35 -160 -4 -98 -9 -119 -36 -176
-72 -148 -129 -356 -141 -511 l-6 -77 -43 -6 c-85 -11 -158 -65 -188 -138 -13
-29 -16 -77 -16 -213 0 -191 7 -225 58 -278 52 -55 97 -70 219 -75 l111 -4 37
-73 c21 -40 68 -115 105 -166 l67 -94 -36 -16 c-47 -21 -107 -88 -121 -136 -7
-24 -10 -102 -8 -214 l3 -176 30 -49 c21 -34 46 -58 80 -76 48 -26 56 -28 193
-28 164 0 194 10 254 80 42 48 58 98 58 179 0 35 4 61 10 61 22 0 130 -61 130
-73 0 -6 -62 -185 -139 -397 l-138 -385 -184 -5 c-101 -3 482 -6 1296 -6 814
1 1284 3 1045 6 l-434 5 -143 395 c-78 217 -141 395 -140 396 11 9 129 64 137
64 6 0 10 -26 10 -62 0 -86 15 -132 57 -179 64 -70 92 -79 256 -79 l143 0 54
33 c42 25 61 44 82 86 28 52 28 56 28 227 0 194 -7 223 -63 283 -18 18 -49 41
-69 50 l-37 17 58 78 c32 42 79 117 105 165 l46 88 113 5 c89 4 121 9 153 26
47 24 90 71 111 119 16 40 18 349 2 406 -21 76 -99 138 -190 152 l-46 7 -7 78
c-13 162 -71 371 -142 512 -32 63 -34 74 -34 166 0 85 -3 105 -25 149 -39 77
-115 123 -204 123 -45 0 -53 4 -117 61 -180 159 -408 275 -664 336 -90 22
-134 26 -305 29 -146 2 -221 -1 -280 -11z m384 -130 c34 -17 54 -60 49 -106
l-3 -34 -180 0 -180 0 -3 37 c-4 44 21 96 51 108 38 15 234 12 266 -5z m-447
-163 c-3 -97 0 -178 7 -211 21 -99 85 -163 183 -183 l58 -12 0 -212 0 -211
-32 -7 c-17 -3 -55 -18 -85 -33 l-53 -27 -245 244 -245 245 0 44 c0 92 -51
181 -127 220 l-36 18 67 48 c141 100 264 160 436 211 41 13 75 23 76 23 0 1
-1 -70 -4 -157z m753 116 c116 -37 269 -114 369 -185 l79 -56 -35 -18 c-48
-25 -105 -90 -117 -136 -6 -21 -11 -58 -11 -83 l0 -45 -244 -244 -245 -245
-69 32 c-38 18 -76 32 -85 32 -15 0 -17 21 -17 213 l0 213 61 13 c47 9 70 21
104 52 68 63 80 106 80 284 0 83 -3 165 -7 183 -7 31 -7 32 20 26 15 -4 68
-20 117 -36z m-255 -272 c0 -46 -4 -59 -29 -85 l-29 -31 -125 0 c-118 0 -128
2 -153 23 -23 20 -28 34 -32 85 l-4 62 186 0 186 0 0 -54z m-1090 -101 c38
-20 50 -43 50 -99 l0 -46 -186 0 -187 0 5 50 c5 52 26 86 63 101 37 15 223 10
255 -6z m2071 -1 c34 -17 59 -66 59 -114 l0 -30 -187 2 c-187 3 -188 3 -191
26 -6 40 18 92 52 113 41 25 220 28 267 3z m-2021 -322 c0 -52 -3 -61 -31 -88
-28 -27 -36 -29 -126 -33 -55 -2 -113 2 -135 9 -50 14 -78 58 -78 123 l0 47
185 0 185 0 0 -58z m2078 16 c5 -55 -21 -106 -62 -123 -46 -19 -205 -20 -250
-1 -20 8 -39 27 -49 49 -17 35 -23 98 -10 111 4 3 88 5 187 4 l181 -3 3 -37z
m-482 -109 c17 -53 72 -110 128 -133 28 -12 72 -16 168 -16 146 0 181 10 239
66 l35 35 12 -26 c19 -40 60 -214 67 -280 3 -33 8 -75 11 -92 l5 -33 -511 0
c-470 0 -510 1 -510 17 0 9 -14 47 -32 85 l-32 69 200 200 c167 168 199 196
202 177 2 -13 10 -44 18 -69z m-1257 -113 l195 -195 -27 -55 c-15 -31 -30 -69
-33 -86 l-6 -30 -509 0 c-406 0 -509 3 -509 13 0 74 48 311 79 391 l12 29 37
-36 c58 -57 94 -67 233 -67 138 0 182 10 235 53 38 32 84 116 84 155 0 12 3
22 8 22 4 0 95 -88 201 -194z m614 -182 c57 -19 138 -103 155 -161 37 -124 -5
-242 -112 -315 -46 -31 -53 -33 -140 -33 -86 0 -94 2 -143 33 -32 20 -65 53
-85 85 -29 45 -33 62 -37 129 -4 92 18 148 81 209 68 65 182 87 281 53z
m-1412 -343 c24 -24 29 -38 29 -75 l0 -46 -185 0 -185 0 0 38 c1 20 7 48 14
61 23 42 52 50 179 51 118 0 119 0 148 -29z m933 -1 c3 -17 18 -55 33 -86 l27
-55 -355 -355 c-194 -195 -358 -353 -364 -351 -17 6 -138 171 -183 251 l-44
77 41 41 c62 62 74 114 68 306 -2 86 -8 167 -12 180 l-7 22 395 0 395 0 6 -30z
m1549 3 c-5 -16 -8 -109 -8 -208 0 -178 0 -180 27 -227 15 -25 40 -55 55 -66
l26 -19 -42 -74 c-44 -77 -109 -169 -160 -229 l-30 -35 -357 357 -358 357 32
69 c18 38 32 76 32 85 0 16 33 17 395 17 l395 0 -7 -27z m448 -1 c24 -21 32
-38 36 -75 l6 -47 -187 0 -186 0 0 46 c0 37 5 51 29 75 29 29 30 29 150 29
118 0 121 -1 152 -28z m-1827 -238 c9 -3 16 -10 16 -15 0 -16 -331 -933 -341
-943 -5 -5 -44 9 -96 35 -81 41 -88 47 -95 82 -4 20 -17 55 -28 76 -20 40 -85
101 -107 101 -41 0 1 49 298 346 178 178 327 324 331 324 3 0 13 -3 22 -6z
m775 -318 c191 -191 321 -328 317 -335 -4 -6 -13 -11 -20 -11 -7 0 -34 -18
-59 -41 -44 -38 -56 -62 -82 -165 -3 -11 -163 -94 -180 -94 -9 0 -345 922
-345 947 0 11 15 21 35 22 6 1 156 -145 334 -323z m-1849 248 c0 -48 -4 -59
-29 -85 -29 -29 -31 -29 -145 -29 -68 0 -126 5 -141 12 -35 16 -55 57 -55 113
l0 45 185 0 185 0 0 -56z m2938 -1 c-4 -48 -10 -61 -37 -85 -31 -27 -34 -28
-152 -28 -120 0 -121 0 -150 29 -25 26 -29 37 -29 85 l0 56 186 0 186 0 -4
-57z m-1718 -499 l0 -506 -62 7 c-75 7 -260 44 -277 54 -8 6 33 134 148 452
187 521 179 499 186 499 3 0 5 -228 5 -506z m310 36 c89 -250 165 -460 167
-467 7 -17 -135 -51 -284 -68 l-63 -7 0 508 c0 279 4 504 8 499 5 -6 82 -215
172 -465z m-1131 -264 c26 -25 31 -37 31 -78 l0 -48 -185 0 -185 0 0 35 c0 20
7 50 16 66 24 48 63 59 186 57 103 -3 108 -4 137 -32z m2047 19 c38 -16 64
-62 64 -115 l0 -30 -190 0 -190 0 0 31 c0 46 27 95 63 113 43 21 204 22 253 1z
m-2016 -323 c0 -105 -34 -125 -199 -120 -104 3 -112 5 -137 30 -32 31 -47 124
-23 139 8 5 92 9 187 9 l172 0 0 -58z m2078 13 c3 -49 -23 -105 -58 -122 -15
-8 -66 -13 -128 -13 -120 0 -156 13 -178 65 -17 42 -18 102 -1 108 6 3 91 5
187 4 l175 -2 3 -40z m-1609 -59 c31 -8 68 -17 83 -20 l27 -6 -17 -38 c-14
-30 -17 -69 -17 -217 0 -165 2 -183 22 -220 27 -51 68 -90 115 -109 50 -21
293 -22 342 -2 52 22 103 73 123 124 26 66 26 368 1 424 l-17 38 27 6 c15 3
52 12 83 20 75 19 74 19 86 -18 6 -18 66 -183 132 -366 67 -184 121 -338 121
-343 0 -11 -1450 -13 -1450 -1 -1 21 264 742 273 742 5 0 35 -6 66 -14z m542
-85 c24 -24 29 -38 29 -75 l0 -46 -185 0 -185 0 0 46 c0 37 5 51 29 75 29 29
29 29 156 29 127 0 127 0 156 -29z m29 -302 c0 -45 -4 -55 -34 -85 l-34 -34
-111 0 c-64 0 -121 5 -136 12 -35 16 -55 57 -55 113 l0 45 185 0 185 0 0 -51z"/>
<path d="M508 3 c34 -2 88 -2 120 0 31 2 3 3 -63 3 -66 0 -92 -1 -57 -3z"/>
</g>
</svg>
